<svg width="512" height="512" viewBox="0 0 512 512" fill="none" xmlns="http://www.w3.org/2000/svg">
<path fill-rule="evenodd" clip-rule="evenodd" d="M76 56C64.9543 56 56 64.9543 56 76V211C56 222.046 64.9543 231 76 231H123.31C133.517 176.487 176.487 133.517 231 123.31V76C231 64.9543 222.046 56 211 56H76ZM231 143.725C187.557 153.355 153.355 187.557 143.725 231H211C222.046 231 231 222.046 231 211V143.725ZM123.31 281H76C64.9543 281 56 289.954 56 301V436C56 447.046 64.9543 456 76 456H211C222.046 456 231 447.046 231 436V388.69C176.487 378.483 133.517 335.513 123.31 281ZM231 368.275C187.557 358.645 153.355 324.443 143.725 281H211C222.046 281 231 289.954 231 301V368.275ZM281 388.69V436C281 447.046 289.954 456 301 456H436C447.046 456 456 447.046 456 436V301C456 289.954 447.046 281 436 281H388.69C378.483 335.513 335.513 378.483 281 388.69ZM368.275 281C358.645 324.443 324.443 358.645 281 368.275V301C281 289.954 289.954 281 301 281H368.275ZM368.275 231H301C289.954 231 281 222.046 281 211V143.725C324.443 153.355 358.645 187.557 368.275 231ZM388.69 231C378.483 176.487 335.513 133.517 281 123.31V76C281 64.9543 289.954 56 301 56H436C447.046 56 456 64.9543 456 76V211C456 222.046 447.046 231 436 231H388.69Z" fill="white"/>
</svg>
